<svg xmlns="http://www.w3.org/2000/svg" width="800" height="800" viewBox="0 0 800 800">
  <defs>
    <linearGradient id="grad2" x1="0%" y1="0%" x2="100%" y2="100%">
      <stop offset="0%" style="stop-color:#f093fb;stop-opacity:1" />
      <stop offset="100%" style="stop-color:#f5576c;stop-opacity:1" />
    </linearGradient>
  </defs>
  <rect width="800" height="800" fill="url(#grad2)"/>
  <path d="M 400 250 L 420 270 L 400 290 L 380 270 Z" fill="white" opacity="0.2" transform="rotate(0 400 270)"/>
  <path d="M 400 250 L 420 270 L 400 290 L 380 270 Z" fill="white" opacity="0.2" transform="rotate(45 400 270)"/>
  <path d="M 400 250 L 420 270 L 400 290 L 380 270 Z" fill="white" opacity="0.2" transform="rotate(90 400 270)"/>
  <path d="M 400 250 L 420 270 L 400 290 L 380 270 Z" fill="white" opacity="0.2" transform="rotate(135 400 270)"/>
  <text x="400" y="440" font-family="Arial, sans-serif" font-size="42" font-weight="bold" fill="white" text-anchor="middle">Finding Your</text>
  <text x="400" y="500" font-family="Arial, sans-serif" font-size="54" font-weight="bold" fill="white" text-anchor="middle">Voice</text>
  <text x="400" y="560" font-family="Arial, sans-serif" font-size="28" fill="white" text-anchor="middle" opacity="0.9">in a Noisy World</text>
  <text x="400" y="640" font-family="Arial, sans-serif" font-size="22" fill="white" text-anchor="middle" opacity="0.8">Episode 002</text>
</svg>
